<?xml version="1.0" standalone="no"?>
<!DOCTYPE svg PUBLIC "-//W3C//DTD SVG 20010904//EN"
 "http://www.w3.org/TR/2001/REC-SVG-20010904/DTD/svg10.dtd">
<svg version="1.0" xmlns="http://www.w3.org/2000/svg"
 width="98.000000pt" height="101.000000pt" viewBox="0 0 98.000000 101.000000"
 preserveAspectRatio="xMidYMid meet">

<g transform="translate(0.000000,101.000000) scale(0.100000,-0.100000)"
fill="#000000" stroke="none">
<path d="M505 855 c-101 -36 -101 -126 -1 -202 67 -51 75 -52 69 -4 -12 85 41
139 123 126 23 -3 55 -16 71 -27 20 -15 16 -9 -12 21 -74 78 -175 113 -250 86z"/>
<path d="M367 809 c-75 -56 -100 -173 -53 -247 34 -54 101 -111 162 -138 129
-57 180 -113 171 -189 -4 -39 -2 -43 12 -36 27 15 69 64 80 94 14 37 14 95 0
138 -18 52 -64 94 -153 140 -167 87 -200 123 -194 210 1 27 3 49 3 49 0 0 -12
-10 -28 -21z"/>
<path d="M450 381 c24 -46 -1 -119 -52 -147 -32 -18 -93 -17 -129 2 -46 23
-45 11 0 -25 120 -95 286 -97 333 -3 29 60 2 112 -87 163 -60 35 -80 38 -65
10z"/>
</g>
</svg>
